<svg xmlns="http://www.w3.org/2000/svg" enable-background="new 0 0 300 225" viewBox="0 0 300 225" id="business-stat"><g><path fill="none" stroke="#000" stroke-miterlimit="10" stroke-width=".316" d="M32.96,112.14c0,0-2.53-68.08,64.78-54.34c35.96,7.34,54.66-6.24,63.01-15.84c6.01-6.9,14.16-11.57,23.1-13.5
		c22.62-4.88,61.35-6.58,79.82,31.56c27,55.74-17.43,117.05-42.9,131.74s-82.32-11.86-82.32-11.86s-40.32-11.44-66.82,15.05
		S32.96,112.14,32.96,112.14z"></path><g><path d="M232.21,166.93H58.86c-4.19,0-7.58-3.4-7.58-7.58V61.45c0-4.19,3.4-7.58,7.58-7.58h173.35c4.19,0,7.58,3.4,7.58,7.58
			v97.89C239.79,163.53,236.4,166.93,232.21,166.93z"></path><rect width="93.34" height="175.56" x="98.86" y="22.62" fill="#fff" transform="rotate(90 145.535 110.398)"></rect><rect width="40.08" height="12.51" x="125.5" y="166.93"></rect><path d="M176.2,188.77h-61.33l0,0c0-5.15,4.18-9.33,9.33-9.33h42.68C172.02,179.44,176.2,183.62,176.2,188.77L176.2,188.77z"></path></g><rect width="10.63" height="38.86" x="66.94" y="110.71"></rect><rect width="10.63" height="30.31" x="87.88" y="119.26" fill="#fff" stroke="#000" stroke-miterlimit="10" stroke-width=".316"></rect><rect width="10.63" height="16.85" x="108.82" y="132.72"></rect><rect width="10.63" height="22.54" x="129.75" y="127.03" fill="#fff" stroke="#000" stroke-miterlimit="10" stroke-width=".316"></rect><rect width="10.63" height="46.73" x="171.63" y="102.84" fill="#fff" stroke="#000" stroke-miterlimit="10" stroke-width=".316"></rect><rect width="10.63" height="25.01" x="150.69" y="124.56"></rect><rect width="10.63" height="61.86" x="192.57" y="87.71"></rect><rect width="10.63" height="56.34" x="213.5" y="93.24" fill="#fff" stroke="#000" stroke-miterlimit="10" stroke-width=".316"></rect><g><g><path fill="#fff" stroke="#000" stroke-miterlimit="10" stroke-width=".316" d="M173.38,83.64h90.88c0.59,0,1.07-0.48,1.07-1.07V33.82c0-0.59-0.48-1.07-1.07-1.07h-90.88
				c-0.59,0-1.07,0.48-1.07,1.07v48.74C172.31,83.16,172.79,83.64,173.38,83.64z"></path><path d="M172.31,38.44h93.02v-4.69c0-0.55-0.44-0.99-0.99-0.99H173.3c-0.55,0-0.99,0.44-0.99,0.99V38.44z"></path></g><g><path fill="#fff" stroke="#000" stroke-miterlimit="10" stroke-width=".316" d="M218.04,60.68c0,9.28-7.52,16.8-16.8,16.8s-16.8-7.52-16.8-16.8h9.59c0,3.98,3.23,7.21,7.21,7.21
				c3.98,0,7.21-3.23,7.21-7.21c0-3.98-3.23-7.21-7.21-7.21v-9.59C210.52,43.87,218.04,51.4,218.04,60.68z"></path><path fill="#ff7f6e" stroke="#000" stroke-miterlimit="10" stroke-width=".316" d="M197.03,54.82c-1.82,1.31-3,3.44-3,5.85h-9.59c0-5.62,2.76-10.59,6.99-13.64L197.03,54.82z"></path><path stroke="#000" stroke-miterlimit="10" stroke-width=".316" d="M201.24,43.87v9.59c-1.57,0-3.02,0.5-4.21,1.36l-5.6-7.79C194.19,45.04,197.58,43.87,201.24,43.87z"></path></g><rect width="5.57" height="5.57" x="232.26" y="45.81" fill="#ff7f6e"></rect><g><line x1="240.62" x2="249.95" y1="46.85" y2="46.85" fill="none" stroke="#000" stroke-miterlimit="10" stroke-width=".316"></line><line x1="240.62" x2="257.47" y1="50.34" y2="50.34" fill="none" stroke="#000" stroke-miterlimit="10" stroke-width=".316"></line></g><rect width="5.57" height="5.57" x="232.26" y="56.26"></rect><g><line x1="240.62" x2="249.95" y1="57.3" y2="57.3" fill="none" stroke="#000" stroke-miterlimit="10" stroke-width=".316"></line><line x1="240.62" x2="257.47" y1="60.78" y2="60.78" fill="none" stroke="#000" stroke-miterlimit="10" stroke-width=".316"></line></g><rect width="5.57" height="5.57" x="232.26" y="66.7" fill="#fff" stroke="#000" stroke-miterlimit="10" stroke-width=".316"></rect><g><line x1="240.62" x2="249.95" y1="67.75" y2="67.75" fill="none" stroke="#000" stroke-miterlimit="10" stroke-width=".316"></line><line x1="240.62" x2="257.47" y1="71.23" y2="71.23" fill="none" stroke="#000" stroke-miterlimit="10" stroke-width=".316"></line></g></g><g><g><path fill="#fff" stroke="#000" stroke-miterlimit="10" stroke-width=".316" d="M29.07,102.15h97c0.63,0,1.14-0.51,1.14-1.14V48.98c0-0.63-0.51-1.14-1.14-1.14h-97
				c-0.63,0-1.14,0.51-1.14,1.14v52.03C27.93,101.64,28.44,102.15,29.07,102.15z"></path><path d="M27.93,53.91h99.28V48.9c0-0.58-0.47-1.06-1.06-1.06H28.98c-0.58,0-1.06,0.47-1.06,1.06V53.91z"></path></g><g><polyline fill="none" stroke="#000" stroke-miterlimit="10" stroke-width=".632" points="37.64 75.6 49.6 79.89 60.61 88.16 72.06 85.28 83.07 84.54 94.6 70.98 106.56 63.86 117.5 66.96"></polyline><circle cx="37.64" cy="75.6" r="2.15" fill="#ff7f6e"></circle><circle cx="49.6" cy="79.89" r="2.15" fill="#ff7f6e"></circle><circle cx="60.61" cy="88.16" r="2.15" fill="#ff7f6e"></circle><circle cx="72.07" cy="85.28" r="2.15" fill="#ff7f6e"></circle><circle cx="83.06" cy="84.55" r="2.15" fill="#ff7f6e"></circle><circle cx="94.61" cy="70.98" r="2.15" fill="#ff7f6e"></circle><circle cx="106.58" cy="63.89" r="2.15" fill="#ff7f6e"></circle><circle cx="117.5" cy="66.95" r="2.15" fill="#ff7f6e"></circle></g></g></g></svg>